<mxfile host="Electron" agent="Mozilla/5.0 (Windows NT 10.0; Win64; x64) AppleWebKit/537.36 (KHTML, like Gecko) draw.io/26.1.1 Chrome/132.0.6834.210 Electron/34.3.3 Safari/537.36" version="26.1.1">
  <diagram name="PÃ¡gina-1" id="gU5UCndtDcqNL9qaoUty">
    <mxGraphModel dx="1020" dy="504" grid="1" gridSize="10" guides="1" tooltips="1" connect="1" arrows="1" fold="1" page="1" pageScale="1" pageWidth="827" pageHeight="1169" math="0" shadow="0">
      <root>
        <mxCell id="0" />
        <mxCell id="1" parent="0" />
        <mxCell id="4FudhBBdSVvixyvoC9Eb-1" style="edgeStyle=orthogonalEdgeStyle;rounded=0;orthogonalLoop=1;jettySize=auto;html=1;exitX=0.5;exitY=1;exitDx=0;exitDy=0;entryX=0.5;entryY=0;entryDx=0;entryDy=0;" edge="1" parent="1" source="4FudhBBdSVvixyvoC9Eb-2" target="4FudhBBdSVvixyvoC9Eb-5">
          <mxGeometry relative="1" as="geometry" />
        </mxCell>
        <mxCell id="4FudhBBdSVvixyvoC9Eb-2" value="" style="rounded=1;whiteSpace=wrap;html=1;" vertex="1" parent="1">
          <mxGeometry x="360" y="80" width="120" height="60" as="geometry" />
        </mxCell>
        <mxCell id="4FudhBBdSVvixyvoC9Eb-3" value="Inicio" style="text;html=1;align=center;verticalAlign=middle;whiteSpace=wrap;rounded=0;" vertex="1" parent="1">
          <mxGeometry x="390" y="95" width="60" height="30" as="geometry" />
        </mxCell>
        <mxCell id="4FudhBBdSVvixyvoC9Eb-4" style="edgeStyle=orthogonalEdgeStyle;rounded=0;orthogonalLoop=1;jettySize=auto;html=1;exitX=0.5;exitY=1;exitDx=0;exitDy=0;" edge="1" parent="1" source="4FudhBBdSVvixyvoC9Eb-5">
          <mxGeometry relative="1" as="geometry">
            <mxPoint x="420" y="260" as="targetPoint" />
          </mxGeometry>
        </mxCell>
        <mxCell id="4FudhBBdSVvixyvoC9Eb-5" value="" style="rounded=0;whiteSpace=wrap;html=1;" vertex="1" parent="1">
          <mxGeometry x="360" y="180" width="120" height="60" as="geometry" />
        </mxCell>
        <mxCell id="4FudhBBdSVvixyvoC9Eb-6" value="declarar variable &quot;a&quot; como entero" style="text;html=1;align=center;verticalAlign=middle;whiteSpace=wrap;rounded=0;" vertex="1" parent="1">
          <mxGeometry x="370" y="195" width="100" height="30" as="geometry" />
        </mxCell>
        <mxCell id="4FudhBBdSVvixyvoC9Eb-8" value="" style="shape=manualInput;whiteSpace=wrap;html=1;" vertex="1" parent="1">
          <mxGeometry x="345" y="360" width="150" height="80" as="geometry" />
        </mxCell>
        <mxCell id="4FudhBBdSVvixyvoC9Eb-31" style="edgeStyle=orthogonalEdgeStyle;rounded=0;orthogonalLoop=1;jettySize=auto;html=1;" edge="1" parent="1" source="4FudhBBdSVvixyvoC9Eb-9" target="4FudhBBdSVvixyvoC9Eb-18">
          <mxGeometry relative="1" as="geometry" />
        </mxCell>
        <mxCell id="4FudhBBdSVvixyvoC9Eb-9" value="Entrada de valor para &quot;a&quot;" style="text;html=1;align=center;verticalAlign=middle;whiteSpace=wrap;rounded=0;" vertex="1" parent="1">
          <mxGeometry x="356" y="400" width="124" height="30" as="geometry" />
        </mxCell>
        <mxCell id="4FudhBBdSVvixyvoC9Eb-10" style="edgeStyle=orthogonalEdgeStyle;rounded=0;orthogonalLoop=1;jettySize=auto;html=1;exitX=0.5;exitY=1;exitDx=0;exitDy=0;entryX=0.5;entryY=0;entryDx=0;entryDy=0;" edge="1" parent="1" source="4FudhBBdSVvixyvoC9Eb-11" target="4FudhBBdSVvixyvoC9Eb-8">
          <mxGeometry relative="1" as="geometry" />
        </mxCell>
        <mxCell id="4FudhBBdSVvixyvoC9Eb-11" value="" style="shape=parallelogram;perimeter=parallelogramPerimeter;whiteSpace=wrap;html=1;fixedSize=1;" vertex="1" parent="1">
          <mxGeometry x="310" y="265" width="220" height="60" as="geometry" />
        </mxCell>
        <mxCell id="4FudhBBdSVvixyvoC9Eb-12" value="Mostrar en pantalla &quot;Introduzca un numero&quot;" style="text;html=1;align=center;verticalAlign=middle;whiteSpace=wrap;rounded=0;" vertex="1" parent="1">
          <mxGeometry x="350" y="280" width="145" height="30" as="geometry" />
        </mxCell>
        <mxCell id="4FudhBBdSVvixyvoC9Eb-16" value="" style="rounded=1;whiteSpace=wrap;html=1;" vertex="1" parent="1">
          <mxGeometry x="360" y="630" width="120" height="60" as="geometry" />
        </mxCell>
        <mxCell id="4FudhBBdSVvixyvoC9Eb-17" value="Fin" style="text;html=1;align=center;verticalAlign=middle;whiteSpace=wrap;rounded=0;" vertex="1" parent="1">
          <mxGeometry x="388" y="645" width="60" height="30" as="geometry" />
        </mxCell>
        <mxCell id="4FudhBBdSVvixyvoC9Eb-22" style="edgeStyle=orthogonalEdgeStyle;rounded=0;orthogonalLoop=1;jettySize=auto;html=1;exitX=1;exitY=0.5;exitDx=0;exitDy=0;entryX=0.5;entryY=0;entryDx=0;entryDy=0;" edge="1" parent="1" source="4FudhBBdSVvixyvoC9Eb-18" target="4FudhBBdSVvixyvoC9Eb-21">
          <mxGeometry relative="1" as="geometry" />
        </mxCell>
        <mxCell id="4FudhBBdSVvixyvoC9Eb-23" style="edgeStyle=orthogonalEdgeStyle;rounded=0;orthogonalLoop=1;jettySize=auto;html=1;exitX=0;exitY=0.5;exitDx=0;exitDy=0;entryX=0.5;entryY=0;entryDx=0;entryDy=0;" edge="1" parent="1" source="4FudhBBdSVvixyvoC9Eb-18" target="4FudhBBdSVvixyvoC9Eb-20">
          <mxGeometry relative="1" as="geometry" />
        </mxCell>
        <mxCell id="4FudhBBdSVvixyvoC9Eb-18" value="" style="rhombus;whiteSpace=wrap;html=1;" vertex="1" parent="1">
          <mxGeometry x="335" y="470" width="170" height="80" as="geometry" />
        </mxCell>
        <mxCell id="4FudhBBdSVvixyvoC9Eb-19" value="El modulo 2 de a es 0?" style="text;html=1;align=center;verticalAlign=middle;whiteSpace=wrap;rounded=0;" vertex="1" parent="1">
          <mxGeometry x="364.5" y="500" width="116" height="40" as="geometry" />
        </mxCell>
        <mxCell id="4FudhBBdSVvixyvoC9Eb-30" style="edgeStyle=orthogonalEdgeStyle;rounded=0;orthogonalLoop=1;jettySize=auto;html=1;exitX=0.5;exitY=1;exitDx=0;exitDy=0;entryX=0.5;entryY=0;entryDx=0;entryDy=0;" edge="1" parent="1" source="4FudhBBdSVvixyvoC9Eb-20" target="4FudhBBdSVvixyvoC9Eb-16">
          <mxGeometry relative="1" as="geometry" />
        </mxCell>
        <mxCell id="4FudhBBdSVvixyvoC9Eb-20" value="" style="shape=parallelogram;perimeter=parallelogramPerimeter;whiteSpace=wrap;html=1;fixedSize=1;" vertex="1" parent="1">
          <mxGeometry x="180" y="530" width="120" height="60" as="geometry" />
        </mxCell>
        <mxCell id="4FudhBBdSVvixyvoC9Eb-28" style="edgeStyle=orthogonalEdgeStyle;rounded=0;orthogonalLoop=1;jettySize=auto;html=1;exitX=0.5;exitY=1;exitDx=0;exitDy=0;entryX=0.5;entryY=0;entryDx=0;entryDy=0;" edge="1" parent="1" source="4FudhBBdSVvixyvoC9Eb-21" target="4FudhBBdSVvixyvoC9Eb-16">
          <mxGeometry relative="1" as="geometry" />
        </mxCell>
        <mxCell id="4FudhBBdSVvixyvoC9Eb-21" value="" style="shape=parallelogram;perimeter=parallelogramPerimeter;whiteSpace=wrap;html=1;fixedSize=1;" vertex="1" parent="1">
          <mxGeometry x="530" y="530" width="120" height="60" as="geometry" />
        </mxCell>
        <mxCell id="4FudhBBdSVvixyvoC9Eb-24" value="Si" style="text;html=1;align=center;verticalAlign=middle;whiteSpace=wrap;rounded=0;" vertex="1" parent="1">
          <mxGeometry x="296" y="480" width="60" height="30" as="geometry" />
        </mxCell>
        <mxCell id="4FudhBBdSVvixyvoC9Eb-25" value="No" style="text;html=1;align=center;verticalAlign=middle;whiteSpace=wrap;rounded=0;" vertex="1" parent="1">
          <mxGeometry x="495" y="480" width="60" height="30" as="geometry" />
        </mxCell>
        <mxCell id="4FudhBBdSVvixyvoC9Eb-26" value="a es impar" style="text;html=1;align=center;verticalAlign=middle;whiteSpace=wrap;rounded=0;" vertex="1" parent="1">
          <mxGeometry x="560" y="545" width="60" height="30" as="geometry" />
        </mxCell>
        <mxCell id="4FudhBBdSVvixyvoC9Eb-27" value="a es par" style="text;html=1;align=center;verticalAlign=middle;whiteSpace=wrap;rounded=0;" vertex="1" parent="1">
          <mxGeometry x="210" y="545" width="60" height="30" as="geometry" />
        </mxCell>
        <mxCell id="4FudhBBdSVvixyvoC9Eb-32" value="&lt;h1 style=&quot;margin-top: 0px;&quot;&gt;&lt;font style=&quot;font-size: 14px;&quot;&gt;Randy Paniagua&lt;/font&gt;&lt;/h1&gt;" style="text;html=1;whiteSpace=wrap;overflow=hidden;rounded=0;" vertex="1" parent="1">
          <mxGeometry x="180" y="125" width="134" height="40" as="geometry" />
        </mxCell>
      </root>
    </mxGraphModel>
  </diagram>
</mxfile>
